<svg width="428" height="428" viewBox="0 0 428 428" fill="none" xmlns="http://www.w3.org/2000/svg">
<g clip-path="url(#clip0_521_2)">
<path d="M405.943 290.254L302.096 425.338C301.056 426.692 299.436 427.484 297.722 427.484C296.02 427.484 294.401 426.686 293.354 425.338L189.511 290.254C188.742 289.261 188.367 288.078 188.367 286.897C188.367 285.745 188.731 284.568 189.475 283.575C190.974 281.6 193.6 280.868 195.909 281.766L264.669 308.932V21.01C264.669 17.963 267.146 15.507 270.184 15.507H325.29C328.328 15.507 330.799 17.963 330.799 21.01V308.932L399.559 281.766C401.864 280.868 404.489 281.6 405.978 283.575C407.473 285.561 407.461 288.28 405.943 290.254ZM238.012 143.913C238.756 142.92 239.117 141.746 239.117 140.591C239.117 139.415 238.738 138.224 237.975 137.231L134.125 2.148C133.081 0.792 131.458 0 129.759 0C128.045 0 126.431 0.798 125.382 2.148L21.5388 137.23C20.0198 139.199 20.0138 141.92 21.5088 143.913C22.9958 145.881 25.6228 146.62 27.9278 145.716L96.6938 118.553V406.472C96.6938 409.522 99.1558 411.981 102.2 411.981H157.309C160.35 411.981 162.824 409.522 162.824 406.472V118.552L231.587 145.715C233.886 146.62 236.51 145.88 238.012 143.913Z" fill="white"/>
</g>
<defs>
<clipPath id="clip0_521_2">
<rect width="427.484" height="427.484" fill="white"/>
</clipPath>
</defs>
</svg>
